<svg xmlns="http://www.w3.org/2000/svg" viewBox="0 0 200 200" width="200" height="200">
  <!-- Background circle -->
  <circle cx="100" cy="100" r="95" fill="#1a1a2e" stroke="#16213e" stroke-width="2"/>
  
  <!-- Circuit elements -->
  <!-- Resistor symbol -->
  <path d="M 40 100 L 60 100 L 65 90 L 75 110 L 85 90 L 95 110 L 105 90 L 110 100 L 130 100" 
        stroke="#4ECDC4" stroke-width="3" fill="none" stroke-linecap="round" stroke-linejoin="round"/>
  
  <!-- LED symbol (triangle with lines) -->
  <path d="M 70 130 L 90 140 L 90 120 Z" 
        stroke="#FF6B6B" stroke-width="2.5" fill="none"/>
  <line x1="70" y1="130" x2="90" y2="130" 
        stroke="#FF6B6B" stroke-width="2.5"/>
  
  <!-- Arrow for LED -->
  <path d="M 85 115 L 95 105 M 90 115 L 100 105" 
        stroke="#FFD93D" stroke-width="2" fill="none" stroke-linecap="round"/>
  <path d="M 95 105 L 92 108 L 95 111 M 100 105 L 97 108 L 100 111" 
        stroke="#FFD93D" stroke-width="2" fill="none" stroke-linecap="round"/>
  
  <!-- Capacitor symbol -->
  <line x1="125" y1="60" x2="125" y2="80" 
        stroke="#95E1D3" stroke-width="3"/>
  <line x1="135" y1="60" x2="135" y2="80" 
        stroke="#95E1D3" stroke-width="3"/>
  
  <!-- Connection nodes -->
  <circle cx="60" cy="100" r="3" fill="#4ECDC4"/>
  <circle cx="110" cy="100" r="3" fill="#4ECDC4"/>
  <circle cx="90" cy="130" r="3" fill="#FF6B6B"/>
  <circle cx="130" cy="70" r="3" fill="#95E1D3"/>
  
  <!-- JSON brackets (representing the .json format) -->
  <text x="150" y="110" font-family="monospace" font-size="40" fill="#A8DADC" font-weight="bold">{</text>
  <text x="35" y="110" font-family="monospace" font-size="40" fill="#A8DADC" font-weight="bold">}</text>
  
  <!-- Title text -->
  <text x="100" y="185" font-family="Arial, sans-serif" font-size="16" fill="#E0E0E0" text-anchor="middle" font-weight="bold">Circuit</text>
</svg>
